PathFileType	4	(X/Y/Z)	C:\Users\WrightLab\Desktop\Jo\P5V18.trc
DataRate	CameraRate	NumFrames	NumMarkers	Units	OrigDataRate	OrigDataStartFrame	OrigNumFrames
100.00	100.00	       15	19	mm	100.00	335	       892
Frame#	Time	Headset_Front			Headset_Back			Headset_Left			Headset_Right			Left_Shoulder			Right_Shoulder			Sternum			C7			Left Elbow			Right Elbow			Left Wrist			Right Wrist			Left ASIS			Right ASIS			S2			Left Knee			Right Knee			Left Ankle			Right Ankle			
		X1	Y1	Z1	X2	Y2	Z2	X3	Y3	Z3	X4	Y4	Z4	X5	Y5	Z5	X6	Y6	Z6	X7	Y7	Z7	X8	Y8	Z8	X9	Y9	Z9	X10	Y10	Z10	X11	Y11	Z11	X12	Y12	Z12	X13	Y13	Z13	X14	Y14	Z14	X15	Y15	Z15	X16	Y16	Z16	X17	Y17	Z17	X18	Y18	Z18	X19	Y19	Z19	

335	3.340	-740.48425	1670.71094	1394.48560	-654.48419	1340.70740	1461.74451																						-275.42789	1262.43176	1603.89648	-919.71472	1230.05725	1405.47705	-215.46703	1104.61475	1422.64063	-789.74310	950.86304	1531.20715	-524.14545	962.92200	1463.24634				-792.84216	521.03284	1650.95691	-607.30505	576.96027	1369.07495				-637.73981	143.96939	1436.21472	
336	3.350	-740.77051	1670.36169	1386.60596	-655.88550	1339.71643	1453.61646																						-279.56793	1260.72827	1603.62744	-920.46124	1229.87878	1396.73022	-218.23488	1097.72449	1425.43884	-791.03497	950.07733	1522.95251	-525.17053	963.44403	1455.84082				-791.01532	520.09650	1647.63855	-607.54047	573.33807	1366.28577				-642.88623	141.48192	1418.99487	
337	3.360	-741.67505	1670.32776	1378.77478	-656.71918	1338.89392	1445.32983																						-284.37686	1258.49817	1601.21057	-921.72058	1228.10999	1387.40747	-222.11414	1090.72437	1427.24890	-792.49731	949.85254	1514.55994	-525.74066	962.10687	1449.75842				-789.02783	519.49982	1642.97668	-608.00342	569.10034	1363.43933				-647.71619	138.26553	1403.30432	
338	3.370	-741.40802	1669.68494	1370.78369	-657.97638	1339.98413	1437.98474																						-288.90643	1255.60364	1600.19519	-921.61517	1226.43420	1378.03101	-225.51949	1084.84570	1429.48279	-793.96368	949.16754	1505.78381	-526.56836	961.52515	1441.83142				-787.56256	518.65491	1641.08618	-609.09546	566.01367	1359.42297				-651.75952	136.68509	1389.42749	
339	3.380	-741.83344	1669.42310	1362.88318	-658.23688	1338.71143	1430.48303																						-292.70380	1252.78003	1598.80371	-921.53998	1225.31055	1368.70239	-229.54364	1077.41589	1431.96545	-795.39191	948.77216	1496.84863	-526.69080	961.05969	1434.07520				-785.56207	517.94122	1637.11633	-608.87421	562.96704	1355.27026				-656.17023	135.07809	1375.49463	
340	3.390	-741.33551	1669.07971	1354.82629	-659.24719	1338.02051	1421.38196																						-297.09927	1250.59607	1596.43848	-921.26202	1223.82874	1359.16333	-233.63261	1071.12866	1432.85620	-797.03497	948.28705	1487.63354	-527.11871	960.79407	1425.76880				-783.61377	517.61133	1632.98425	-609.51660	560.28009	1350.55896				-659.11951	132.84612	1365.94580	
341	3.400	-742.09393	1669.20508	1346.95654	-660.22406	1337.85974	1412.44165																						-300.79559	1248.14612	1593.84631	-920.94891	1222.88794	1349.63306	-237.45973	1065.28809	1435.38977	-798.45581	947.65118	1478.10620	-527.49762	959.90161	1417.82654				-781.83167	517.40997	1628.67029	-608.90106	558.20953	1344.94373				-662.11188	129.75580	1357.10535	
342	3.410	-741.04730	1668.45093	1338.98743	-660.66119	1336.79126	1403.82727																						-305.44720	1245.80530	1591.21191	-920.78125	1221.78760	1339.84448	-242.35123	1058.96082	1435.41211	-799.93457	947.30817	1468.48047	-527.55042	958.99866	1409.77625				-779.82349	517.12494	1624.18237	-610.04395	555.42859	1339.42285				-664.65924	127.92071	1350.88379	
343	3.420	-740.73584	1668.11084	1331.11865	-660.78473	1335.89905	1395.43994																						-310.13107	1242.73120	1588.21387	-920.57672	1221.06934	1330.12952	-246.82466	1053.53772	1437.24817	-801.76935	946.59155	1458.44312	-527.40961	958.09741	1401.08740				-778.02637	516.93250	1619.05334	-610.49976	553.35474	1334.28418				-665.95215	125.99917	1345.83801	
344	3.430	-740.87469	1668.07568	1323.37634	-661.31799	1335.57581	1386.09546																						-314.63171	1240.26160	1584.82007	-920.25708	1220.29944	1320.21777	-251.41933	1047.76001	1438.11548	-803.21484	945.85431	1448.12866	-527.87720	957.72791	1392.58997				-776.46381	516.46722	1613.76685	-610.65247	551.22888	1328.21887				-668.17633	122.67687	1342.22888	
345	3.440	-739.88745	1667.60718	1315.57068	-661.10779	1334.46228	1377.58948																						-318.74039	1237.96936	1581.46338	-919.99542	1219.79333	1310.43604	-255.99693	1042.79529	1439.01123	-805.05951	945.41028	1437.50562	-528.01849	957.03235	1384.72034				-775.28339	516.34521	1607.73755	-610.72211	548.09467	1322.98706				-667.67169	120.19004	1340.75391	
346	3.450	-738.75873	1666.91907	1307.85010	-661.51923	1334.38403	1368.09583																			-972.18890	1256.40186	1509.96790	-322.72952	1235.64478	1578.78516	-919.69110	1219.51758	1300.47729	-260.70670	1037.37708	1438.83252	-806.52533	944.63458	1426.42676	-528.01300	956.66357	1374.44189				-776.13770	516.51416	1599.78149	-610.95728	545.20349	1316.48645				-669.37384	119.01646	1338.23962	
347	3.460	-738.44257	1666.85901	1300.20715	-661.22357	1333.16443	1359.07727							-864.26288	1515.93372	1457.06079				-507.85135	1616.27905	1297.38782				-972.79993	1255.42761	1499.65332	-326.69348	1233.43335	1575.66736	-919.30157	1219.21521	1290.51184	-265.80554	1032.58899	1438.70251	-807.64111	943.72827	1415.04675	-528.61188	956.36646	1365.60950				-778.22119	516.65106	1590.51282	-611.93781	542.13922	1309.99072				-671.95270	118.79894	1335.84729	
348	3.470	-737.74078	1667.19568	1292.20361	-660.83453	1332.82410	1350.42993							-864.18060	1515.31653	1447.87268	-445.09323	1459.43945	1424.15540	-508.09259	1615.08557	1288.42407				-974.09991	1255.32568	1489.30310	-330.12552	1231.18921	1571.86804	-918.88898	1219.29407	1280.33691	-270.13620	1027.95178	1438.96130	-809.16730	943.38049	1403.27161	-529.37506	955.24042	1357.20337				-780.56281	516.18457	1580.61145	-612.59442	539.42889	1302.27063				-673.47357	118.77499	1335.60864	
349	3.480	-735.91492	1667.33093	1283.82178	-660.73608	1333.18127	1341.35632							-864.25476	1515.41333	1438.76904	-446.94568	1457.83337	1416.55945	-507.09189	1614.48254	1281.51526				-974.32758	1254.71326	1478.79590	-334.10031	1229.31616	1568.48291	-918.68536	1219.62024	1270.21899	-275.50641	1023.77716	1438.26990	-809.98932	943.23761	1391.13574	-529.64648	955.35199	1347.23511				-782.31854	514.97345	1570.29480	-613.77478	538.18005	1294.67969				-673.50336	119.28490	1335.57593	
